<svg width="198" height="66" viewBox="0 0 198 66" fill="none" xmlns="http://www.w3.org/2000/svg">
<rect y="6.49219" width="51.7647" height="51.9399" rx="14.4658" fill="#3692FF"/>
<path d="M24.9953 20.9522C25.6415 23.1852 23.933 25.6458 21.9746 26.2163C20.0162 26.7868 17.3407 25.6035 16.6945 23.3705C16.0483 21.1376 17.4048 18.0436 19.3632 17.4731C21.9746 16.7123 24.3492 18.7193 24.9953 20.9522Z" fill="#222327"/>
<path d="M26.073 20.9522C25.4269 23.1852 27.1354 25.6458 29.0938 26.2163C31.0522 26.7868 33.7277 25.6035 34.3739 23.3705C35.02 21.1376 33.6636 18.0436 31.7052 17.4731C29.0938 16.7123 26.7192 18.7193 26.073 20.9522Z" fill="#222327"/>
<path d="M38.1976 37.2651C38.1976 42.9448 32.6285 45.056 25.0319 45.056C17.4353 45.056 11.9922 42.9448 11.9922 37.2651C11.9922 30.6585 17.4353 24.7998 25.0319 24.7998C32.6285 24.7998 38.1976 30.1599 38.1976 37.2651Z" fill="#F3D6DD"/>
<path d="M22.5173 36.1438C22.5173 38.004 21.3233 40.0446 19.6548 40.0446C17.9863 40.0446 15.291 38.529 15.291 35.7503C15.291 33.14 18.2027 32.2117 21.2115 32.6883C23.0556 32.9805 22.5173 34.2837 22.5173 36.1438Z" fill="#222327"/>
<path d="M21.1223 35.9564C21.1223 36.2354 21.0383 36.4616 20.6187 36.4616C20.1992 36.4616 20.1152 36.2354 20.1152 35.9564C20.1152 35.6774 20.2831 35.4512 20.6187 35.4512C20.9544 35.4512 21.1223 35.6774 21.1223 35.9564Z" fill="white"/>
<path d="M27.5921 36.1438C27.5921 38.004 28.7861 40.0446 30.4546 40.0446C32.1231 40.0446 34.8184 38.529 34.8184 35.7503C34.8184 33.14 31.9067 32.2117 28.8979 32.6883C27.0538 32.9805 27.5921 34.2837 27.5921 36.1438Z" fill="#222327"/>
<path d="M28.9891 35.9564C28.9891 36.2354 29.073 36.4616 29.4926 36.4616C29.9122 36.4616 29.9961 36.2354 29.9961 35.9564C29.9961 35.6774 29.8283 35.4512 29.4926 35.4512C29.1569 35.4512 28.9891 35.6774 28.9891 35.9564Z" fill="white"/>
<path d="M23.1318 38.8339C23.0302 38.6857 22.8276 38.6478 22.6793 38.7494C22.531 38.851 22.4932 39.0536 22.5948 39.2019L23.1318 38.8339ZM24.9985 38.4336L25.3064 38.3281C25.2614 38.1965 25.1376 38.1081 24.9985 38.1081C24.8594 38.1081 24.7357 38.1965 24.6906 38.3281L24.9985 38.4336ZM27.4023 39.2019C27.5039 39.0536 27.466 38.851 27.3178 38.7494C27.1695 38.6478 26.9669 38.6857 26.8653 38.8339L27.4023 39.2019ZM22.5948 39.2019C22.6847 39.3331 22.848 39.509 23.067 39.6543C23.2881 39.8009 23.5833 39.9277 23.9309 39.9277V39.2767C23.7447 39.2767 23.5729 39.2087 23.4269 39.1119C23.2789 39.0137 23.1753 38.8975 23.1318 38.8339L22.5948 39.2019ZM23.9309 39.9277C24.3586 39.9277 24.6768 39.6226 24.8748 39.3599C25.0838 39.0825 25.2316 38.7576 25.3064 38.5391L24.6906 38.3281C24.632 38.4991 24.5129 38.7585 24.3549 38.9681C24.1859 39.1923 24.037 39.2767 23.9309 39.2767V39.9277ZM24.6906 38.5391C24.7655 38.7576 24.9132 39.0825 25.1223 39.3599C25.3203 39.6226 25.6384 39.9277 26.0662 39.9277V39.2767C25.9601 39.2767 25.8111 39.1923 25.6421 38.9681C25.4842 38.7585 25.365 38.4991 25.3064 38.3281L24.6906 38.5391ZM26.0662 39.9277C26.4137 39.9277 26.709 39.8009 26.93 39.6543C27.149 39.509 27.3124 39.3331 27.4023 39.2019L26.8653 38.8339C26.8218 38.8975 26.7182 39.0137 26.5702 39.1119C26.4242 39.2087 26.2524 39.2767 26.0662 39.2767V39.9277Z" fill="#222327"/>
<path d="M26.7746 38.1336C26.7746 38.4043 25.5555 38.7489 25.1452 38.8573C25.0575 38.8804 24.9671 38.8804 24.8794 38.8573C24.4691 38.7489 23.25 38.4043 23.25 38.1336C23.25 37.8081 24.2244 37.46 25.0123 37.46C25.8002 37.46 26.7746 37.8081 26.7746 38.1336Z" fill="#222327"/>
<path d="M24.8026 29.4751C19.9053 29.4751 18.1056 27.7546 17.8145 26.7483L20.1438 24.2163L25.1908 23.3398L32.1789 26.7483C31.7583 27.5599 29.7052 29.4751 24.8026 29.4751Z" fill="#222327"/>
<path fill-rule="evenodd" clip-rule="evenodd" d="M25.4806 47.8806C35.6006 47.8806 43.0196 45.0284 43.0196 37.3552C43.0196 27.7561 35.6006 20.5146 25.4806 20.5146C15.3605 20.5146 8.10938 28.4297 8.10938 37.3552C8.10938 45.0284 15.3605 47.8806 25.4806 47.8806ZM25.0827 44.9337C32.5268 44.9337 37.984 42.845 37.984 37.2259C37.984 30.1964 32.5268 24.8934 25.0827 24.8934C17.6387 24.8934 12.3049 30.6897 12.3049 37.2259C12.3049 42.845 17.6387 44.9337 25.0827 44.9337Z" fill="white"/>
<path d="M91.7426 27.6676H95.7233V32.3117H91.7426V41.7326H85.7716V35.8943C81.5256 36.7567 77.3127 37.2212 71.1759 37.2212H64.2097V32.6766H66.8635V23.2557H64.8731V18.7774H83.1842V23.2557H81.1939V32.179C82.8193 31.9799 84.3452 31.7477 85.7716 31.4824V18.4457H91.7426V27.6676ZM67.4937 49.6276V39.7754H73.5974V45.0166H92.4061V49.6276H67.4937ZM72.8345 32.6766C73.6638 32.6434 74.4599 32.6434 75.2229 32.6102V23.2557H72.8345V32.6766ZM128.895 29.9896V34.6337H124.915V49.6276H118.944V44.4195C114.698 45.6469 110.485 46.3435 104.348 46.3435H98.3771V19.4409H115.361V23.9191H104.348V41.7989C110.419 41.7989 114.731 41.2018 118.944 40.0076V18.4457H124.915V29.9896H128.895ZM162.068 29.9896V34.6337H158.087V49.6276H152.116V18.4457H158.087V29.9896H162.068ZM131.549 46.3435V19.4409H148.898V46.3435H131.549ZM137.52 41.7989H142.994V23.9854H137.52V41.7989ZM187.444 18.4457H193.25V36.425H187.444V18.4457ZM162.731 32.8756C166.612 32.0795 169.531 30.8521 171.157 29.293L164.721 29.6911V25.3787H172.55V23.2557H165.385V18.7774H178.355V24.7484H180.246V18.6115H185.885V36.425H180.246V29.3925H177.493C175.735 32.8092 171.323 35.6289 164.622 37.3207L162.731 32.8756ZM166.347 44.8839C174.54 44.5854 176.929 42.8936 176.929 40.0076V37.4865H182.9V40.5384C182.9 41.3345 182.8 42.0975 182.601 42.7941C186.449 43.0595 190.264 43.5902 193.25 44.2868L191.657 49.6276C188.241 48.4334 183.464 47.2723 179.616 46.6421C176.863 48.4997 172.451 49.3954 166.977 49.6276L166.347 44.8839Z" fill="#3692FF"/>
</svg>
