<svg width="357" height="56" viewBox="0 0 357 56" fill="none" xmlns="http://www.w3.org/2000/svg">
<rect width="357" height="56" rx="28" fill="#3692FF"/>
<path d="M138.979 20.1562V21.7383C138.969 23.3887 138.969 25.1953 138.51 27.6953H140.951V29.4531H133.939V36.7578H131.752V29.4531H124.857V27.6953H136.303C136.791 25.293 136.811 23.4863 136.811 21.9141H126.752V20.1562H138.979ZM156.928 19.1016V29.4141H154.76V27.4609H150.561V25.7031H154.76V23.8086H150.727C149.613 26.6113 147.035 28.5742 143.197 29.6484L142.318 27.9297C146.449 26.8164 148.656 24.7168 148.988 22.0898H143.256V20.332H151.361C151.361 20.9473 151.312 21.5332 151.215 22.0898H154.76V19.1016H156.928ZM145.092 33.125C145.092 30.957 147.465 29.6191 151.088 29.6094C154.662 29.6191 157.045 30.957 157.045 33.125C157.045 35.293 154.662 36.6504 151.088 36.6406C147.465 36.6504 145.092 35.293 145.092 33.125ZM147.26 33.125C147.26 34.2871 148.715 34.9219 151.088 34.9219C153.422 34.9219 154.867 34.2871 154.877 33.125C154.867 31.9434 153.422 31.3086 151.088 31.3086C148.715 31.3086 147.26 31.9434 147.26 33.125ZM173.256 19.082V26.1133H175.971V27.9102H173.256V36.7383H171.107V19.082H173.256ZM159.33 23.5352V21.7969H163.51V19.3359H165.678V21.7969H169.74V23.5352H159.33ZM160.15 28.8477C160.131 26.4062 162.025 24.6777 164.604 24.6875C167.143 24.6777 169.027 26.4062 169.037 28.8477C169.027 31.2793 167.143 32.9883 164.604 32.9883C162.025 32.9883 160.131 31.2793 160.15 28.8477ZM162.221 28.8477C162.211 30.2832 163.217 31.2012 164.604 31.1914C165.961 31.2012 166.947 30.2832 166.967 28.8477C166.947 27.4121 165.961 26.4648 164.604 26.4648C163.217 26.4648 162.211 27.4121 162.221 28.8477ZM191.498 19.082V36.7578H189.33V27.3633H186.303V25.5859H189.33V19.082H191.498ZM177.299 22.3828V20.625H185.287V27.0898H179.506V30.8008C182.133 30.791 184.242 30.7031 186.615 30.2734L186.791 32.0508C184.164 32.5098 181.801 32.6074 178.764 32.6172H177.357V25.332H183.158V22.3828H177.299ZM212.572 19.082V25.9766H215.189V27.793H212.572V36.6992H210.404V19.082H212.572ZM198.646 31.875C202.943 29.7266 205.268 26.7383 205.697 22.7148H199.604V20.918H207.904C207.895 26.1035 205.746 30.6641 199.877 33.5547L198.646 31.875ZM230.775 19.082V36.7383H228.588V19.082H230.775ZM216.146 31.875C220.775 29.6777 222.904 26.6895 223.295 22.6758H217.045V20.957H225.502C225.502 26.2109 223.461 30.6738 217.279 33.6133L216.146 31.875Z" fill="#F3F4F6"/>
</svg>
